<svg width="62" height="70" viewBox="0 0 62 70" fill="none" xmlns="http://www.w3.org/2000/svg">
<path d="M43.3047 30.1562C39.9193 33.5417 35.8177 35.2344 31 35.2344C26.1823 35.2344 22.0807 33.5417 18.6953 30.1562C15.3099 26.7708 13.6172 22.7344 13.6172 18.0469C13.6172 13.2292 15.3099 9.1276 18.6953 5.74219C22.0807 2.35677 26.1823 0.664062 31 0.664062C35.8177 0.664062 39.9193 2.35677 43.3047 5.74219C46.6901 9.1276 48.3828 13.2292 48.3828 18.0469C48.3828 22.7344 46.6901 26.7708 43.3047 30.1562ZM43.3047 39.5312C48.2526 39.5312 52.4844 41.3542 56 45C59.5156 48.5156 61.2734 52.7474 61.2734 57.6953V63.3594C61.2734 65.1823 60.6224 66.7448 59.3203 68.0469C58.0182 69.2188 56.4557 69.8047 54.6328 69.8047H7.36719C5.54427 69.8047 3.98177 69.2188 2.67969 68.0469C1.3776 66.7448 0.726562 65.1823 0.726562 63.3594V57.6953C0.726562 52.7474 2.48438 48.5156 6 45C9.51562 41.3542 13.7474 39.5312 18.6953 39.5312H21.0391C24.1641 40.9635 27.4844 41.6797 31 41.6797C34.5156 41.6797 37.8359 40.9635 40.9609 39.5312H43.3047Z" fill="#EBE3CB"/>
</svg>
