<svg width="29" height="23" viewBox="0 0 29 23" fill="none" xmlns="http://www.w3.org/2000/svg">
<path d="M25.1406 7.61719C27.5781 9.25781 28.7969 11.3672 28.7969 13.9453C28.7969 16.1016 27.9062 18 26.125 19.6406C26.5938 20.5781 27.1562 21.4453 27.8125 22.2422C25.9375 22.2422 24.2969 22.0078 22.8906 21.5391C21.4844 22.0547 20.0312 22.3125 18.5312 22.3125C16.9375 22.3125 15.4375 22.0312 14.0312 21.4688C17.3125 20.9531 20.0312 19.5938 22.1875 17.3906C24.3438 15.1875 25.4219 12.6562 25.4219 9.79688C25.4219 9.09375 25.3281 8.36719 25.1406 7.61719ZM22.75 9.79688C22.75 12.3281 21.6484 14.4844 19.4453 16.2656C17.2422 18.0469 14.5469 18.9375 11.3594 18.9375C10.5156 18.9375 9.67188 18.8672 8.82812 18.7266C6.95312 19.8516 4.46875 20.4141 1.375 20.4141C2.3125 19.1953 3.0625 17.8828 3.625 16.4766C1.28125 14.6484 0.109375 12.4219 0.109375 9.79688C0.109375 7.21875 1.21094 5.03906 3.41406 3.25781C5.61719 1.47656 8.28906 0.585938 11.4297 0.585938C14.5703 0.585938 17.2422 1.47656 19.4453 3.25781C21.6484 5.03906 22.75 7.21875 22.75 9.79688Z" fill="#EBE3CB"/>
</svg>
