<svg width="27" height="23" viewBox="0 0 27 23" fill="none" xmlns="http://www.w3.org/2000/svg">
<path d="M24.9453 0.164062C25.3203 0.164062 25.6719 0.328125 26 0.65625C26.3281 0.9375 26.4922 1.3125 26.4922 1.78125V5.01562H0.617188V1.78125C0.617188 1.3125 0.78125 0.9375 1.10938 0.65625C1.4375 0.328125 1.78906 0.164062 2.16406 0.164062H24.9453ZM2.16406 21.1875V6.63281H24.9453V21.1875C24.9453 21.6562 24.7812 22.0547 24.4531 22.3828C24.125 22.6641 23.7266 22.8047 23.2578 22.8047H3.85156C3.38281 22.8047 2.98438 22.6641 2.65625 22.3828C2.32812 22.0547 2.16406 21.6562 2.16406 21.1875ZM10.3203 9.86719C9.85156 9.86719 9.45312 10.0312 9.125 10.3594C8.79688 10.6875 8.63281 11.0625 8.63281 11.4844C8.63281 11.9062 8.79688 12.2812 9.125 12.6094C9.45312 12.9375 9.85156 13.1016 10.3203 13.1016H16.7891C17.2578 13.1016 17.6562 12.9375 17.9844 12.6094C18.3125 12.2812 18.4766 11.9062 18.4766 11.4844C18.4766 11.0625 18.3125 10.6875 17.9844 10.3594C17.6562 10.0312 17.2578 9.86719 16.7891 9.86719H10.3203Z" fill="#EBE3CB"/>
</svg>
