<svg width="19" height="19" viewBox="0 0 19 19" fill="none" xmlns="http://www.w3.org/2000/svg">
<path d="M18.5 14.375C18.75 14.625 18.875 14.9792 18.875 15.4375C18.875 15.8125 18.75 16.1667 18.5 16.5L16.375 18.5625C16.0417 18.8542 15.6875 19 15.3125 19C14.9375 19 14.5833 18.8542 14.25 18.5625L9.75 14L5.25 18.5625C5 18.8542 4.66667 19 4.25 19C3.83333 19 3.45833 18.8542 3.125 18.5625L1 16.5C0.75 16.1667 0.625 15.8125 0.625 15.4375C0.625 15.0208 0.75 14.6667 1 14.375L5.625 9.875L1 5.3125C0.75 5.0625 0.625 4.72917 0.625 4.3125C0.625 3.89583 0.75 3.54167 1 3.25L3.125 1.125C3.45833 0.833333 3.83333 0.6875 4.25 0.6875C4.66667 0.6875 5 0.833333 5.25 1.125L9.75 5.6875L14.25 1.125C14.5833 0.833333 14.9375 0.6875 15.3125 0.6875C15.6875 0.6875 16.0417 0.833333 16.375 1.125L18.5 3.25C18.75 3.54167 18.875 3.89583 18.875 4.3125C18.875 4.72917 18.75 5.0625 18.5 5.3125L14 9.875L18.5 14.375Z" fill="#EBE3CB"/>
</svg>
