<svg width="31" height="21" viewBox="0 0 31 21" fill="none" xmlns="http://www.w3.org/2000/svg">
<path d="M12.9219 11.1172L4.0625 20.1172C3.78125 20.3516 3.5 20.4688 3.21875 20.4688C2.9375 20.4688 2.65625 20.3516 2.375 20.1172L1.39062 19.1328C1.10938 18.8516 0.96875 18.5703 0.96875 18.2891C0.96875 17.9609 1.10938 17.7031 1.39062 17.5156L8.5625 10.3438L1.39062 3.10156C1.10938 2.91406 0.96875 2.67969 0.96875 2.39844C0.96875 2.07031 1.10938 1.78906 1.39062 1.55469L2.375 0.570312C2.65625 0.289062 2.9375 0.148438 3.21875 0.148438C3.5 0.148438 3.78125 0.289062 4.0625 0.570312L12.9219 9.57031C13.2031 9.75781 13.3438 10.0156 13.3438 10.3438C13.3438 10.625 13.2031 10.8828 12.9219 11.1172ZM30.6406 19.625C30.6406 19.9062 30.5469 20.1641 30.3594 20.3984C30.1719 20.6328 29.9375 20.75 29.6562 20.75H15.5938C15.2188 20.75 14.9141 20.6328 14.6797 20.3984C14.4453 20.1641 14.3281 19.9062 14.3281 19.625V18.1484C14.3281 17.8203 14.4453 17.5625 14.6797 17.375C14.9141 17.1406 15.2188 17.0234 15.5938 17.0234H29.6562C29.9375 17.0234 30.1719 17.1406 30.3594 17.375C30.5469 17.5625 30.6406 17.8203 30.6406 18.1484V19.625Z" fill="#EBE3CB"/>
</svg>
