<svg width="25" height="29" viewBox="0 0 25 29" fill="none" xmlns="http://www.w3.org/2000/svg">
<path d="M24.5781 20.0391C24.5781 20.4609 24.4375 20.7891 24.1562 21.0234C24.0625 21.4453 24.0156 22.125 24.0156 23.0625C24.0156 24 24.0625 24.6562 24.1562 25.0312C24.4375 25.3125 24.5781 25.6641 24.5781 26.0859V26.9297C24.5781 27.3047 24.4609 27.5859 24.2266 27.7734C23.9922 28.0078 23.6875 28.125 23.3125 28.125H5.73438C4.32812 28.125 3.13281 27.6562 2.14844 26.7188C1.16406 25.7344 0.671875 24.5156 0.671875 23.0625V5.90625C0.671875 4.45312 1.16406 3.23438 2.14844 2.25C3.13281 1.26562 4.32812 0.773438 5.73438 0.773438H23.3125C23.6875 0.773438 23.9922 0.890625 24.2266 1.125C24.4609 1.35937 24.5781 1.66406 24.5781 2.03906V20.0391ZM7.42188 7.875V9C7.42188 9.1875 7.51562 9.28125 7.70312 9.28125H19.2344C19.4219 9.28125 19.5156 9.1875 19.5156 9V7.875C19.5156 7.6875 19.4219 7.59375 19.2344 7.59375H7.70312C7.51562 7.59375 7.42188 7.6875 7.42188 7.875ZM7.42188 11.3906V12.4453C7.42188 12.6797 7.51562 12.7969 7.70312 12.7969H19.2344C19.4219 12.7969 19.5156 12.6797 19.5156 12.4453V11.3906C19.5156 11.1562 19.4219 11.0391 19.2344 11.0391H7.70312C7.51562 11.0391 7.42188 11.1562 7.42188 11.3906ZM21.0625 24.75C20.9688 23.625 20.9688 22.5 21.0625 21.375H5.73438C5.35938 21.375 4.98438 21.5391 4.60938 21.8672C4.23438 22.1953 4.04688 22.5938 4.04688 23.0625C4.04688 23.5312 4.23438 23.9297 4.60938 24.2578C4.98438 24.5859 5.35938 24.75 5.73438 24.75H21.0625Z" fill="#EBE3CB"/>
</svg>
