<svg width="32" height="16" viewBox="0 0 32 16" fill="none" xmlns="http://www.w3.org/2000/svg">
<path d="M2.5 12.9688C1 11.4688 0.25 9.6875 0.25 7.625C0.25 5.5625 1 3.78125 2.5 2.28125C4 0.78125 5.78125 0.03125 7.84375 0.03125C9.90625 0.03125 11.6875 0.78125 13.1875 2.28125L15.7188 4.60156L18.1094 2.21094C19.6094 0.757812 21.3906 0.03125 23.4531 0.03125C25.5156 0.03125 27.2969 0.78125 28.7969 2.28125C30.2969 3.78125 31.0469 5.5625 31.0469 7.625C31.0469 9.6875 30.2969 11.4688 28.7969 12.9688C27.2969 14.4688 25.5156 15.2188 23.4531 15.2188C21.3906 15.2188 19.6094 14.4688 18.1094 12.9688L15.7188 10.6484L13.1875 13.0391C11.6875 14.4922 9.90625 15.2188 7.84375 15.2188C5.78125 15.2188 4 14.4688 2.5 12.9688ZM10.0938 5.375C9.4375 4.71875 8.6875 4.39062 7.84375 4.39062C7 4.39062 6.25 4.71875 5.59375 5.375C4.9375 5.98438 4.60938 6.73438 4.60938 7.625C4.60938 8.51562 4.9375 9.28906 5.59375 9.94531C6.25 10.5547 7.02344 10.8594 7.91406 10.8594C8.80469 10.8594 9.53125 10.5312 10.0938 9.875L12.4844 7.625L10.0938 5.375ZM23.3828 10.8594C24.2734 10.8594 25.0469 10.5547 25.7031 9.94531C26.3594 9.28906 26.6875 8.51562 26.6875 7.625C26.6875 6.73438 26.3594 5.98438 25.7031 5.375C25.0469 4.71875 24.2969 4.39062 23.4531 4.39062C22.6094 4.39062 21.8594 4.71875 21.2031 5.375L18.8125 7.625L21.2031 9.875C21.7656 10.4844 22.4922 10.8125 23.3828 10.8594Z" fill="#EBE3CB"/>
</svg>
