<svg width="29" height="29" viewBox="0 0 29 29" fill="none" xmlns="http://www.w3.org/2000/svg">
<path d="M28.0391 16.2422C28.0391 16.7109 27.8516 17.1094 27.4766 17.4375C27.1016 17.7188 26.7266 17.8594 26.3516 17.8594H23.3984V18.7734C23.3984 19.8984 23.1641 20.9766 22.6953 22.0078L25.9297 25.1719C26.2109 25.5469 26.3516 25.9688 26.3516 26.4375C26.3516 26.9062 26.1875 27.2812 25.8594 27.5625C25.5312 27.8906 25.1328 28.0547 24.6641 28.0547C24.1953 28.0547 23.7734 27.9141 23.3984 27.6328L20.5859 24.6797C19.1797 25.8047 17.5859 26.3672 15.8047 26.3672V13.4297C15.8047 13.0078 15.5703 12.7969 15.1016 12.7969H13.8359C13.3672 12.7969 13.1328 13.0078 13.1328 13.4297V26.3672C11.3516 26.3672 9.75781 25.8047 8.35156 24.6797L5.53906 27.6328C5.16406 27.9141 4.74219 28.0547 4.27344 28.0547C3.80469 28.0547 3.40625 27.8906 3.07812 27.5625C2.75 27.2812 2.58594 26.9062 2.58594 26.4375C2.58594 25.9688 2.72656 25.5469 3.00781 25.1719L6.24219 22.0078C5.77344 20.9766 5.53906 19.8984 5.53906 18.7734V17.8594H2.58594C2.21094 17.8594 1.83594 17.7188 1.46094 17.4375C1.08594 17.1094 0.898438 16.7109 0.898438 16.2422C0.898438 15.7734 1.0625 15.375 1.39062 15.0469C1.71875 14.6719 2.11719 14.4844 2.58594 14.4844H5.53906V11.3906L3.00781 8.85938C2.72656 8.53125 2.58594 8.13281 2.58594 7.66406C2.58594 7.19531 2.75 6.79688 3.07812 6.46875C3.40625 6.14062 3.80469 5.97656 4.27344 5.97656C4.74219 5.97656 5.16406 6.14062 5.53906 6.46875L8.35156 9.42188H20.5859L23.3984 6.46875C23.7734 6.14062 24.1953 5.97656 24.6641 5.97656C25.1328 5.97656 25.5312 6.14062 25.8594 6.46875C26.1875 6.79688 26.3516 7.19531 26.3516 7.66406C26.3516 8.13281 26.2109 8.53125 25.9297 8.85938L23.3984 11.3906V14.4844H26.3516C26.8203 14.4844 27.2188 14.6719 27.5469 15.0469C27.875 15.375 28.0391 15.7734 28.0391 16.2422ZM10.3203 2.67188C11.4453 1.5 12.8281 0.914062 14.4688 0.914062C16.1094 0.914062 17.5156 1.5 18.6875 2.67188C19.8594 3.79688 20.4453 5.17969 20.4453 6.82031H8.63281C8.63281 5.17969 9.19531 3.79688 10.3203 2.67188Z" fill="#EBE3CB"/>
</svg>
