<svg width="31" height="30" viewBox="0 0 31 30" fill="none" xmlns="http://www.w3.org/2000/svg">
<path d="M9.33594 0.773438C10.0391 0.398438 10.4141 0.210938 10.4609 0.210938C10.5078 0.210938 10.4609 0.328125 10.3203 0.5625C10.2266 0.75 10.0625 0.984375 9.82812 1.26562C9.64062 1.54688 9.45312 1.78125 9.26562 1.96875C9.03125 2.25 8.58594 2.64844 7.92969 3.16406C7.27344 3.63281 6.875 3.86719 6.73438 3.86719C6.6875 3.86719 6.73438 3.72656 6.875 3.44531C7.01562 3.11719 7.17969 2.78906 7.36719 2.46094C7.60156 2.13281 7.78906 1.89844 7.92969 1.75781C8.25781 1.47656 8.72656 1.14844 9.33594 0.773438ZM20.9375 0.421875C20.9375 0.328125 21.1016 0.375 21.4297 0.5625C21.8047 0.703125 22.2031 0.914062 22.625 1.19531C23.0469 1.42969 23.3516 1.61719 23.5391 1.75781C23.6797 1.89844 23.8438 2.13281 24.0312 2.46094C24.2656 2.78906 24.4297 3.11719 24.5234 3.44531C24.6641 3.72656 24.7109 3.86719 24.6641 3.86719C24.2891 3.82031 23.5625 3.32812 22.4844 2.39062C21.4531 1.40625 20.9375 0.75 20.9375 0.421875ZM6.10156 2.17969C6.85156 1.75781 7.25 1.54688 7.29688 1.54688C7.29688 1.54688 7.27344 1.59375 7.22656 1.6875C7.17969 1.78125 7.10938 1.89844 7.01562 2.03906C6.92188 2.17969 6.82812 2.34375 6.73438 2.53125C6.45312 2.95312 6.125 3.53906 5.75 4.28906C5.42188 4.99219 5.25781 5.41406 5.25781 5.55469C5.25781 5.60156 5.39844 5.53125 5.67969 5.34375C6.00781 5.10938 6.42969 4.80469 6.94531 4.42969C7.97656 3.63281 8.49219 3.32812 8.49219 3.51562C8.53906 3.5625 8.51562 3.67969 8.42188 3.86719C8.28125 4.38281 8.09375 4.75781 7.85938 4.99219C7.625 5.22656 7.17969 5.50781 6.52344 5.83594C5.72656 6.21094 5.1875 6.53906 4.90625 6.82031L4.41406 7.24219L4.48438 5.69531C4.57812 4.52344 4.71875 3.75 4.90625 3.375C5.09375 2.95312 5.49219 2.55469 6.10156 2.17969ZM24.9453 3.02344L24.1719 1.61719L25.1562 2.17969C25.8125 2.55469 26.2109 2.92969 26.3516 3.30469C26.5391 3.63281 26.6797 4.33594 26.7734 5.41406C26.8672 6.39844 26.8672 6.91406 26.7734 6.96094C26.7266 6.96094 26.6328 6.89062 26.4922 6.75C26.2578 6.5625 25.6719 6.23438 24.7344 5.76562C24.0312 5.4375 23.5859 5.15625 23.3984 4.92188C23.2109 4.6875 23.0469 4.28906 22.9062 3.72656L22.7656 3.09375L23.6094 3.86719C24.0312 4.24219 24.5703 4.64062 25.2266 5.0625L26 5.48438L25.7891 4.92188C25.6953 4.54688 25.4141 3.91406 24.9453 3.02344ZM12.5703 3.86719C13.3203 3.58594 14.2578 3.44531 15.3828 3.44531C16.5547 3.39844 17.5625 3.49219 18.4062 3.72656C19.25 4.00781 20.1406 4.47656 21.0781 5.13281C22.0156 5.78906 22.7656 6.51563 23.3281 7.3125C23.8906 8.0625 24.3359 8.95312 24.6641 9.98438C25.0391 10.9688 25.2266 11.8594 25.2266 12.6562C25.2266 13.0781 25.2031 13.3359 25.1562 13.4297C25.1094 13.5234 25.0156 13.5703 24.875 13.5703C24.6406 13.4766 23.5156 13.2891 21.5 13.0078L18.4766 12.5859L18.2656 11.8828C17.8438 10.8047 17 10.2422 15.7344 10.1953C14.4688 10.1484 13.6016 10.6406 13.1328 11.6719C12.8984 12.1875 12.7812 12.5859 12.7812 12.8672C12.7812 13.7109 13.0859 14.4141 13.6953 14.9766C14.3047 15.4922 15.0078 15.75 15.8047 15.75C16.6484 15.7031 17.3047 15.375 17.7734 14.7656L18.3359 14.1328L21.5703 14.625C23.6328 14.9062 24.7578 15.0938 24.9453 15.1875C25.0391 15.3281 24.8516 15.8906 24.3828 16.875C23.4922 18.8438 22.0859 20.3672 20.1641 21.4453C18.2422 22.4766 16.25 22.8047 14.1875 22.4297C12.125 22.1016 10.3672 21.2109 8.91406 19.7578C7.46094 18.3047 6.54688 16.5234 6.17188 14.4141C5.79688 12.2109 6.21875 10.1016 7.4375 8.08594C8.65625 6.07031 10.3672 4.66406 12.5703 3.86719ZM16.5078 5.13281L16.6484 4.07812H15.2422C13.9766 4.07812 12.7344 4.38281 11.5156 4.99219C10.2969 5.60156 9.3125 6.39844 8.5625 7.38281C8.23438 7.85156 7.90625 8.41406 7.57812 9.07031C7.25 9.67969 7.03906 10.1953 6.94531 10.6172C6.85156 11.0391 6.875 11.2734 7.01562 11.3203C7.10938 11.3203 7.85938 11.4375 9.26562 11.6719C10.6719 11.9062 11.5156 12.0234 11.7969 12.0234C12.125 11.9766 12.3594 11.7422 12.5 11.3203C12.6875 10.8984 13.0391 10.5 13.5547 10.125C14.1172 9.75 14.6562 9.51562 15.1719 9.42188C15.5 9.375 15.7109 9.16406 15.8047 8.78906C15.9453 8.41406 16.1797 7.19531 16.5078 5.13281ZM19.6016 4.92188C18.9453 4.64062 18.3828 4.42969 17.9141 4.28906C17.4922 4.10156 17.2812 4.03125 17.2812 4.07812C17.2812 4.17187 17.1406 5.08594 16.8594 6.82031L16.5078 9.49219L17.1406 9.77344C17.4688 9.91406 17.8438 10.2188 18.2656 10.6875C18.6875 11.1562 18.8984 11.5078 18.8984 11.7422C18.8984 11.8828 19.0859 12 19.4609 12.0938C19.8359 12.1875 20.8438 12.3516 22.4844 12.5859L24.5938 12.8672L24.4531 11.6719C24.3125 10.3125 23.7734 9 22.8359 7.73438C21.8984 6.42187 20.8203 5.48438 19.6016 4.92188ZM9.6875 12.375C9.54688 12.3281 9.3125 12.2812 8.98438 12.2344C7.76562 12.0469 7.0625 12 6.875 12.0938C6.6875 12.1875 6.61719 12.5625 6.66406 13.2188C6.66406 13.4062 6.6875 13.5469 6.73438 13.6406C6.82812 15.1875 7.34375 16.6641 8.28125 18.0703C9.21875 19.4297 10.3672 20.4141 11.7266 21.0234C12.7109 21.4453 13.3438 21.6094 13.625 21.5156C13.9062 21.375 14.1172 20.8125 14.2578 19.8281C14.3047 19.6406 14.3516 19.3828 14.3984 19.0547C14.6328 17.7422 14.7266 16.9688 14.6797 16.7344C14.6797 16.5 14.4922 16.2891 14.1172 16.1016C14.0234 16.0078 13.9531 15.9609 13.9062 15.9609C13.4844 15.6797 13.0625 15.2344 12.6406 14.625C12.2656 14.0156 12.0781 13.5 12.0781 13.0781C12.0781 12.8438 11.2812 12.6094 9.6875 12.375ZM24.1016 15.75C24.0078 15.7031 23.0938 15.5391 21.3594 15.2578L18.7578 14.8359L17.9844 15.4688C17.5156 15.8906 16.9531 16.1953 16.2969 16.3828L15.3125 16.5938L15.0312 18.7031C14.8906 20.1094 14.7734 20.9766 14.6797 21.3047C14.5859 21.5391 14.5859 21.6797 14.6797 21.7266C14.8203 21.7734 15.1719 21.7969 15.7344 21.7969C16.9531 21.7969 18.1953 21.4922 19.4609 20.8828C20.7734 20.2734 21.7812 19.5234 22.4844 18.6328C22.8594 18.1641 23.2344 17.6016 23.6094 16.9453C23.9844 16.2422 24.1484 15.8438 24.1016 15.75ZM3.07812 5.41406C3.78125 4.71094 4.13281 4.45312 4.13281 4.64062C4.13281 4.6875 4.10938 4.78125 4.0625 4.92188C3.92188 5.20312 3.78125 5.90625 3.64062 7.03125C3.5 8.15625 3.47656 8.74219 3.57031 8.78906C3.66406 8.88281 3.82812 8.76563 4.0625 8.4375C4.25 8.15625 4.67188 7.78125 5.32812 7.3125C6.03125 6.79688 6.47656 6.53906 6.66406 6.53906C7.08594 6.53906 6.71094 7.19531 5.53906 8.50781C5.30469 8.78906 5.02344 9.07031 4.69531 9.35156L3.07812 11.0391L2.58594 9C2.25781 7.64063 2.09375 6.84375 2.09375 6.60938C2.09375 6.42187 2.42188 6.02344 3.07812 5.41406ZM27.4062 5.0625L27.1953 4.42969L27.9688 5.0625C28.4375 5.4375 28.7656 5.74219 28.9531 5.97656C29.0938 6.16406 29.1172 6.65625 29.0234 7.45312C28.9297 8.25 28.7891 9.04688 28.6016 9.84375L28.1797 11.1094L27.4766 10.2656C27.1016 9.70312 26.6094 9.1875 26 8.71875C25.0625 8.10937 24.5938 7.45312 24.5938 6.75C24.5938 6.46875 25.1328 6.72656 26.2109 7.52344C26.4922 7.71094 26.7266 7.92188 26.9141 8.15625L27.8281 8.92969L27.6875 7.38281C27.5938 6.30469 27.5 5.53125 27.4062 5.0625ZM1.60156 10.0547L1.95312 9.42188L2.16406 10.5469C2.25781 11.2969 2.42188 12.0234 2.65625 12.7266L2.9375 13.7109L3.28906 12.9375C3.52344 12.375 3.875 11.7422 4.34375 11.0391L5.04688 9.91406V11.0391C5.04688 11.8359 4.78906 12.7734 4.27344 13.8516C3.71094 14.9766 3.42969 15.6328 3.42969 15.8203C3.42969 16.1953 3.10156 15.9609 2.44531 15.1172C2.07031 14.6953 1.78906 14.2734 1.60156 13.8516C1.03906 12.7266 1.03906 11.4609 1.60156 10.0547ZM29.3047 10.125L29.4453 9.42188L29.7266 10.0547C30.3828 11.2734 30.3828 12.5625 29.7266 13.9219C29.3047 14.7656 28.9297 15.3281 28.6016 15.6094L28.0391 16.1016L27.125 13.8516C26.1875 11.6016 25.9297 10.3828 26.3516 10.1953C26.4453 10.1953 26.7266 10.5938 27.1953 11.3906C27.6641 12.1406 27.9922 12.7266 28.1797 13.1484C28.3203 13.5234 28.4375 13.5938 28.5312 13.3594C28.8594 12.0938 29.1172 11.0156 29.3047 10.125ZM26.0703 15.0469C26.1641 14.25 26.2344 13.8516 26.2812 13.8516C26.3281 13.8516 26.5625 14.3672 26.9844 15.3984C27.2656 16.1016 27.4062 16.6172 27.4062 16.9453C27.4531 17.2266 27.4297 17.5781 27.3359 18C27.1484 18.6562 27.1016 18.9844 27.1953 18.9844C27.2422 19.0312 27.4531 18.8203 27.8281 18.3516C28.25 17.8828 28.6484 17.3906 29.0234 16.875C29.3984 16.3125 29.5859 15.9609 29.5859 15.8203C29.5859 15.5391 29.6328 15.3984 29.7266 15.3984C29.9141 15.3984 30.0547 15.75 30.1484 16.4531C30.2422 17.2031 30.1016 17.8359 29.7266 18.3516C29.3984 18.8203 28.7188 19.3359 27.6875 19.8984C26.7031 20.3672 26.1875 20.5312 26.1406 20.3906C26.5156 19.7812 26.5156 18.7031 26.1406 17.1562C26 16.5938 25.9766 15.8906 26.0703 15.0469ZM4.41406 15.3281C4.69531 14.5781 4.90625 14.25 5.04688 14.3438C5.375 14.8125 5.375 15.9141 5.04688 17.6484C4.90625 18.4453 4.90625 19.1484 5.04688 19.7578L5.11719 20.6016C3.28906 19.7578 2.14062 19.0547 1.67188 18.4922C1.4375 18.1641 1.27344 17.7188 1.17969 17.1562C1.13281 16.5469 1.20312 16.0078 1.39062 15.5391C1.48438 15.2578 1.57812 15.2344 1.67188 15.4688C1.67188 15.5156 1.69531 15.6094 1.74219 15.75C1.78906 15.8906 2 16.2656 2.375 16.875C2.79688 17.4844 3.21875 18.0469 3.64062 18.5625C4.0625 19.0312 4.29688 19.2422 4.34375 19.1953C4.34375 19.1484 4.27344 18.9141 4.13281 18.4922C3.80469 17.6484 3.89844 16.5938 4.41406 15.3281ZM5.67969 18.0703C5.72656 17.2734 5.9375 17.0859 6.3125 17.5078C6.82812 18.0703 7.08594 18.9609 7.08594 20.1797C7.08594 21.0234 7.22656 21.7734 7.50781 22.4297L8 23.4141L6.38281 23.3438C5.21094 23.25 4.41406 23.0859 3.99219 22.8516C3.66406 22.6641 3.38281 22.3594 3.14844 21.9375C2.91406 21.5156 2.79688 21.0703 2.79688 20.6016C2.79688 20.4141 2.82031 20.3203 2.86719 20.3203C2.91406 20.2734 3.10156 20.3906 3.42969 20.6719C3.61719 20.8125 3.96875 21.0469 4.48438 21.375C5 21.7031 5.49219 22.0078 5.96094 22.2891C6.42969 22.5234 6.66406 22.6172 6.66406 22.5703C6.66406 22.5234 6.5 22.2188 6.17188 21.6562C5.75 20.7188 5.58594 19.5234 5.67969 18.0703ZM24.9453 17.6484C25.1328 17.4141 25.25 17.3203 25.2969 17.3672C25.3438 17.3672 25.4375 17.4844 25.5781 17.7188C25.7188 18.1406 25.7422 18.7969 25.6484 19.6875C25.5547 20.5312 25.3672 21.2109 25.0859 21.7266L24.6641 22.6406L26.1406 21.8672C27.2188 21.2578 27.8984 20.7891 28.1797 20.4609L28.7422 19.8281L28.6016 20.7422C28.4141 21.6797 28.0156 22.3594 27.4062 22.7812C26.8438 23.1562 25.9531 23.3438 24.7344 23.3438C23.8906 23.3906 23.4688 23.3672 23.4688 23.2734C23.4688 23.1797 23.5625 22.8984 23.75 22.4297C23.9375 22.0078 24.125 21.1641 24.3125 19.8984C24.4531 18.7266 24.6641 17.9766 24.9453 17.6484ZM8.14062 22.1484L7.78906 21.3047L8.42188 21.4453C9.5 21.7266 10.3203 22.2891 10.8828 23.1328C11.2109 23.6016 11.375 23.9297 11.375 24.1172C11.375 24.2578 10.9062 24.5391 9.96875 24.9609C9.07812 25.3359 8.32812 25.5938 7.71875 25.7344C7.34375 25.8281 6.92188 25.7578 6.45312 25.5234C6.03125 25.2891 5.67969 24.9609 5.39844 24.5391C5.25781 24.1641 5.23438 23.9531 5.32812 23.9062C5.46875 24 5.86719 24.0938 6.52344 24.1875C7.17969 24.2344 7.8125 24.2812 8.42188 24.3281C9.03125 24.375 9.33594 24.375 9.33594 24.3281C9.33594 24.2344 9.19531 24 8.91406 23.625C8.58594 23.1562 8.32812 22.6641 8.14062 22.1484ZM21.8516 21.8672C22.8359 21.3516 23.3281 21.2344 23.3281 21.5156C23.3281 21.6094 23.3281 21.7031 23.3281 21.7969C23 22.7812 22.625 23.4609 22.2031 23.8359C21.7812 24.1641 21.875 24.3281 22.4844 24.3281C22.8125 24.3281 23.2578 24.3047 23.8203 24.2578C25.2734 24.0703 26 24.0703 26 24.2578C26.0469 24.3516 25.8594 24.6094 25.4375 25.0312C25.0156 25.4531 24.7109 25.7109 24.5234 25.8047C24.3828 25.8516 24.125 25.8281 23.75 25.7344C23.4219 25.6875 22.7188 25.4766 21.6406 25.1016C20.6094 24.7266 20 24.4922 19.8125 24.3984C19.7656 24.3047 19.9297 23.9531 20.3047 23.3438C20.6328 22.6875 21.1484 22.1953 21.8516 21.8672ZM12.6406 24.5391C12.9688 24.4453 13.4141 24.4453 13.9766 24.5391C14.5391 24.5859 14.9375 24.6797 15.1719 24.8203C15.3594 24.9141 15.8516 24.8672 16.6484 24.6797C18.0078 24.3047 19.3672 24.5391 20.7266 25.3828C21.4297 25.8516 22.0156 26.1328 22.4844 26.2266C23.4219 26.4141 23.3281 26.7656 22.2031 27.2812C21.6406 27.6094 21.0781 27.6562 20.5156 27.4219C20 27.2344 19.3906 26.7422 18.6875 25.9453C18.0781 25.2891 17.7031 24.9375 17.5625 24.8906C17.4219 24.7969 17.1406 24.8203 16.7188 24.9609L16.1562 25.1719L17.1406 26.0859C17.8906 26.7422 18.4062 27.3516 18.6875 27.9141C18.875 28.3359 18.9688 28.5938 18.9688 28.6875C18.9688 28.8281 18.875 28.9453 18.6875 29.0391C18.5469 29.1328 18.4062 29.1328 18.2656 29.0391C18.1719 28.9453 18.0078 28.6641 17.7734 28.1953C17.4922 27.4922 17.0703 26.8594 16.5078 26.2969L15.7344 25.5234L15.1016 26.0156C14.6797 26.2969 14.2344 26.9062 13.7656 27.8438C13.5312 28.2656 13.3203 28.5703 13.1328 28.7578C12.9453 28.9922 12.8047 29.1094 12.7109 29.1094C12.4297 29.0625 12.2891 28.9453 12.2891 28.7578C12.2891 28.4766 12.5234 27.9844 12.9922 27.2812C13.5078 26.625 13.9766 26.1562 14.3984 25.875L15.3125 25.1719L14.75 24.9609C13.9531 24.6797 13.4844 24.75 13.3438 25.1719C13.25 25.5 12.8516 25.9688 12.1484 26.5781C11.4453 27.1406 10.9062 27.4453 10.5312 27.4922C10.2031 27.5859 9.80469 27.5391 9.33594 27.3516C8.86719 27.2109 8.49219 27 8.21094 26.7188C8.11719 26.5312 8.07031 26.4141 8.07031 26.3672C8.07031 26.3203 8.1875 26.2969 8.42188 26.2969C8.75 26.2969 9.40625 26.0156 10.3906 25.4531C11.375 24.9375 12.125 24.6328 12.6406 24.5391Z" fill="#EBE3CB"/>
</svg>
