<svg width="20" height="27" viewBox="0 0 20 27" fill="none" xmlns="http://www.w3.org/2000/svg">
<path d="M9.89844 0.265625C12.1953 0.265625 14.2812 1.03906 16.1562 2.58594C18.0781 4.13281 19.0391 6.00781 19.0391 8.21094C19.0391 9.33594 18.8047 10.3203 18.3359 11.1641C17.8672 12.0078 17.3047 12.6641 16.6484 13.1328C16.0391 13.5547 15.4062 13.9531 14.75 14.3281C14.1406 14.6562 13.6016 15.0078 13.1328 15.3828C12.7109 15.7578 12.5 16.1328 12.5 16.5078V16.7891C12.5 17.1172 12.3828 17.4219 12.1484 17.7031C11.9141 17.9375 11.6094 18.0547 11.2344 18.0547H7.57812C7.20312 18.0547 6.89844 17.9375 6.66406 17.7031C6.42969 17.4219 6.3125 17.1172 6.3125 16.7891V16.2969C6.3125 15.5469 6.40625 14.8906 6.59375 14.3281C6.82812 13.7188 7.20312 13.1797 7.71875 12.7109C8.28125 12.2422 8.72656 11.9141 9.05469 11.7266C9.38281 11.4922 9.875 11.1875 10.5312 10.8125C11.4688 10.2969 12.125 9.85156 12.5 9.47656C12.875 9.10156 13.0625 8.65625 13.0625 8.14062C13.0625 7.39062 12.6875 6.78125 11.9375 6.3125C11.1875 5.84375 10.3672 5.60938 9.47656 5.60938C8.82031 5.60938 8.23438 5.72656 7.71875 5.96094C7.25 6.14844 6.82812 6.40625 6.45312 6.73438C6.125 7.0625 5.70312 7.53125 5.1875 8.14062C5 8.375 4.74219 8.53906 4.41406 8.63281C4.08594 8.67969 3.78125 8.58594 3.5 8.35156L1.32031 6.66406C1.03906 6.47656 0.875 6.21875 0.828125 5.89062C0.78125 5.5625 0.851562 5.25781 1.03906 4.97656C3.19531 1.83594 6.14844 0.265625 9.89844 0.265625ZM6.875 20.5859C7.57812 19.8828 8.42188 19.5312 9.40625 19.5312C10.3906 19.5312 11.2344 19.8828 11.9375 20.5859C12.6406 21.2891 12.9922 22.1328 12.9922 23.1172C12.9922 24.1016 12.6406 24.9453 11.9375 25.6484C11.2344 26.3516 10.3906 26.7031 9.40625 26.7031C8.42188 26.7031 7.57812 26.3516 6.875 25.6484C6.17188 24.9453 5.82031 24.1016 5.82031 23.1172C5.82031 22.1328 6.17188 21.2891 6.875 20.5859Z" fill="#EBE3CB"/>
</svg>
