<svg width="26" height="25" viewBox="0 0 26 25" fill="none" xmlns="http://www.w3.org/2000/svg">
<path d="M0.671875 23.1016V8.26562C0.671875 7.89062 0.8125 7.58594 1.09375 7.35156C1.375 7.07031 1.67969 6.92969 2.00781 6.92969H5.3125C5.6875 6.92969 5.99219 7.07031 6.22656 7.35156C6.50781 7.58594 6.64844 7.89062 6.64844 8.26562V23.1016C6.64844 23.4766 6.50781 23.8047 6.22656 24.0859C5.99219 24.3672 5.6875 24.5078 5.3125 24.5078H2.00781C1.67969 24.5078 1.375 24.3672 1.09375 24.0859C0.8125 23.8047 0.671875 23.4766 0.671875 23.1016ZM10.3047 23.1016V13.0469C10.3047 12.6719 10.4219 12.3438 10.6562 12.0625C10.9375 11.7812 11.2656 11.6406 11.6406 11.6406H14.9453C15.3203 11.6406 15.625 11.7812 15.8594 12.0625C16.1406 12.3438 16.2812 12.6719 16.2812 13.0469V23.1016C16.2812 23.4766 16.1406 23.8047 15.8594 24.0859C15.625 24.3203 15.3203 24.4375 14.9453 24.4375H11.6406C11.2656 24.4375 10.9375 24.3203 10.6562 24.0859C10.4219 23.8047 10.3047 23.4766 10.3047 23.1016ZM19.6562 23.1016V1.79688C19.6562 1.42188 19.7969 1.09375 20.0781 0.8125C20.3594 0.53125 20.6641 0.390625 20.9922 0.390625H24.2969C24.6719 0.390625 24.9766 0.53125 25.2109 0.8125C25.4922 1.09375 25.6328 1.42188 25.6328 1.79688V23.1016C25.6328 23.4766 25.4922 23.8047 25.2109 24.0859C24.9766 24.3672 24.6719 24.5078 24.2969 24.5078H20.9922C20.6641 24.5078 20.3594 24.3672 20.0781 24.0859C19.7969 23.8047 19.6562 23.4766 19.6562 23.1016Z" fill="white"/>
</svg>
