<svg width="31" height="29" viewBox="0 0 31 29" fill="none" xmlns="http://www.w3.org/2000/svg">
<path d="M9.53125 14.4844C7.84375 14.5312 6.46094 15.1875 5.38281 16.4531H3.27344C2.42969 16.4531 1.70312 16.2656 1.09375 15.8906C0.484375 15.4688 0.203125 14.8359 0.25 13.9922C0.25 10.2891 0.882812 8.4375 2.14844 8.4375C2.24219 8.4375 2.47656 8.55469 2.85156 8.78906C3.27344 8.97656 3.78906 9.21094 4.39844 9.49219C5.00781 9.72656 5.61719 9.82031 6.22656 9.77344C6.97656 9.77344 7.67969 9.65625 8.33594 9.42188C8.28906 9.79688 8.26562 10.1484 8.26562 10.4766C8.26562 11.9297 8.6875 13.2656 9.53125 14.4844ZM26.3359 24.4688C26.3359 25.7344 25.9609 26.7188 25.2109 27.4219C24.4609 28.1719 23.4531 28.5469 22.1875 28.5469H8.47656C7.16406 28.5469 6.13281 28.1719 5.38281 27.4219C4.63281 26.7188 4.25781 25.7344 4.25781 24.4688C4.25781 23.9062 4.28125 23.3672 4.32812 22.8516C4.375 22.3359 4.44531 21.7734 4.53906 21.1641C4.63281 20.5547 4.75 19.9922 4.89062 19.4766C5.07812 18.9141 5.3125 18.3984 5.59375 17.9297C5.92188 17.4141 6.25 16.9922 6.57812 16.6641C6.95312 16.2891 7.39844 16.0078 7.91406 15.8203C8.47656 15.5859 9.0625 15.4688 9.67188 15.4688C9.8125 15.4688 10.0469 15.5859 10.375 15.8203C10.7031 16.0547 11.0781 16.3125 11.5 16.5938C11.9219 16.8281 12.4609 17.0859 13.1172 17.3672C13.8203 17.6016 14.5469 17.7188 15.2969 17.7188C16.0469 17.6719 16.75 17.5547 17.4062 17.3672C18.0625 17.1328 18.625 16.875 19.0938 16.5938L20.2891 15.8203C20.5703 15.6328 20.7812 15.5156 20.9219 15.4688C21.5781 15.4688 22.1641 15.5859 22.6797 15.8203C23.1953 16.0078 23.6172 16.2891 23.9453 16.6641C24.3203 16.9922 24.6484 17.4141 24.9297 17.9297C25.2578 18.3984 25.4922 18.9141 25.6328 19.4766C25.8203 19.9922 25.9609 20.5547 26.0547 21.1641C26.1953 21.7734 26.2891 22.3359 26.3359 22.8516V24.4688ZM9.10938 1.61719C9.90625 2.41406 10.3047 3.375 10.3047 4.5C10.3047 5.57812 9.90625 6.51563 9.10938 7.3125C8.3125 8.0625 7.35156 8.4375 6.22656 8.4375C5.14844 8.4375 4.21094 8.0625 3.41406 7.3125C2.61719 6.51563 2.21875 5.57812 2.21875 4.5C2.21875 3.375 2.61719 2.41406 3.41406 1.61719C4.21094 0.820313 5.14844 0.421875 6.22656 0.421875C7.35156 0.421875 8.3125 0.820313 9.10938 1.61719ZM21.3438 10.4766C21.3438 12.1172 20.7344 13.5469 19.5156 14.7656C18.3438 15.9375 16.9375 16.5234 15.2969 16.5234C13.6562 16.4766 12.2266 15.8906 11.0078 14.7656C9.83594 13.5938 9.25 12.1641 9.25 10.4766C9.29688 8.74219 9.88281 7.3125 11.0078 6.1875C12.1797 5.0625 13.6094 4.47656 15.2969 4.42969C16.9844 4.38281 18.3906 4.99219 19.5156 6.25781C20.6875 7.47656 21.2969 8.88281 21.3438 10.4766ZM30.3438 13.9922C30.3438 14.7891 30.0391 15.4219 29.4297 15.8906C28.8672 16.3125 28.1641 16.5 27.3203 16.4531H25.2109C24.1328 15.1875 22.75 14.5312 21.0625 14.4844C21.9062 13.2656 22.3281 11.9297 22.3281 10.4766C22.3281 10.1484 22.3047 9.79688 22.2578 9.42188C22.9609 9.65625 23.6641 9.77344 24.3672 9.77344C24.9766 9.77344 25.5859 9.67969 26.1953 9.49219C26.8516 9.25781 27.3672 9.02344 27.7422 8.78906C28.1172 8.55469 28.3516 8.4375 28.4453 8.4375C29.7109 8.4375 30.3438 10.2891 30.3438 13.9922ZM27.1797 1.61719C27.9766 2.41406 28.375 3.375 28.375 4.5C28.375 5.57812 27.9766 6.51563 27.1797 7.3125C26.3828 8.0625 25.4219 8.4375 24.2969 8.4375C23.2188 8.4375 22.2812 8.0625 21.4844 7.3125C20.6875 6.51563 20.2891 5.57812 20.2891 4.5C20.2891 3.375 20.6875 2.41406 21.4844 1.61719C22.2812 0.820313 23.2188 0.421875 24.2969 0.421875C25.4219 0.421875 26.3828 0.820313 27.1797 1.61719Z" fill="#EBE3CB"/>
</svg>
