<svg width="25" height="27" viewBox="0 0 25 27" fill="none" xmlns="http://www.w3.org/2000/svg">
<path d="M1.53125 1.03906C1.76562 0.851562 1.97656 0.78125 2.16406 0.828125C2.39844 0.875 4.78906 2.86719 9.33594 6.80469L16.1562 12.7109L15.1719 13.8359C14.5156 14.5859 14.1406 14.9609 14.0469 14.9609C13.9531 14.9609 13.25 14.4219 11.9375 13.3438C10.6719 12.2656 10.0156 11.6562 9.96875 11.5156C9.96875 11.4219 10.1094 11.2344 10.3906 10.9531C10.625 10.7656 10.7891 10.6953 10.8828 10.7422C11.0234 10.7891 11.375 11.0469 11.9375 11.5156L13.0625 12.4297L11.8672 11.2344C11.0234 10.4844 10.5781 9.96875 10.5312 9.6875C10.3906 9.3125 9.26562 8.21094 7.15625 6.38281C5 4.50781 3.78125 3.61719 3.5 3.71094C3.35938 3.75781 3.26562 3.80469 3.21875 3.85156C3.17188 3.89844 3.14844 3.94531 3.14844 3.99219C3.24219 4.08594 3.14844 4.29687 2.86719 4.625C2.67969 4.90625 2.53906 5.04688 2.44531 5.04688C2.35156 5.04688 2.1875 4.95313 1.95312 4.76562C1.67188 4.48438 1.55469 4.10938 1.60156 3.64062C1.60156 3.17187 1.55469 2.70313 1.46094 2.23438C1.36719 1.71875 1.39062 1.32031 1.53125 1.03906ZM14.0469 4.20312L16.2266 0.96875H19.3203C20.8203 0.96875 21.7344 0.992187 22.0625 1.03906C22.4375 1.08594 22.7422 1.25 22.9766 1.53125C23.3047 1.85938 23.4688 2.16406 23.4688 2.44531C23.4688 2.67969 23.6094 3.64062 23.8906 5.32812L24.3125 7.85938L21.3594 10.4609C19.3906 12.1953 18.2891 13.0625 18.0547 13.0625C17.9141 13.0156 17.4922 12.6875 16.7891 12.0781C16.0859 11.4688 15.7344 11.0938 15.7344 10.9531C15.7344 10.7656 16.1328 10.3203 16.9297 9.61719C17.1641 9.42969 17.3516 9.24219 17.4922 9.05469C17.6797 8.86719 17.7969 8.72656 17.8438 8.63281C17.9375 8.49219 17.9609 8.42188 17.9141 8.42188C17.7734 8.32812 17.6328 8.32812 17.4922 8.42188C17.3047 8.51562 17.1172 8.46875 16.9297 8.28125C16.7422 8.09375 16.6484 7.85938 16.6484 7.57812C16.6484 7.34375 16.5078 7.25 16.2266 7.29688C15.9922 7.34375 15.875 7.46094 15.875 7.64844C15.875 7.88281 15.6172 8.30469 15.1016 8.91406L14.3281 9.89844L13.0625 8.84375C12.2656 8.1875 11.8672 7.76563 11.8672 7.57812C11.8672 7.48438 12.5938 6.35938 14.0469 4.20312ZM3.14844 4.48438C3.19531 4.4375 3.24219 4.39063 3.28906 4.34375C3.52344 4.01562 3.75781 3.92188 3.99219 4.0625C4.27344 4.20312 5.11719 4.88281 6.52344 6.10156C6.85156 6.38281 7.10938 6.61719 7.29688 6.80469C8.84375 8.16406 9.80469 9.10156 10.1797 9.61719C10.5547 10.1328 10.5547 10.5781 10.1797 10.9531C9.89844 11.2344 9.42969 11.375 8.77344 11.375C8.30469 11.3281 7.90625 11.1875 7.57812 10.9531C7.25 10.6719 6.52344 9.94531 5.39844 8.77344C3.75781 7.13281 2.89062 6.125 2.79688 5.75C2.65625 5.42187 2.77344 5 3.14844 4.48438ZM15.7344 8.42188C16.1094 8.04688 16.2969 7.85938 16.2969 7.85938C16.3438 7.85938 16.5078 8.02344 16.7891 8.35156L17.2812 8.91406L16.1562 10.1797L14.9609 11.5156L14.4688 10.9531C14.1406 10.625 14.0234 10.4141 14.1172 10.3203C14.2109 10.2266 14.4453 10.2969 14.8203 10.5312L15.4531 10.8828L14.8906 10.4609C14.6094 10.2266 14.4922 10.0391 14.5391 9.89844C14.6328 9.71094 15.0312 9.21875 15.7344 8.42188ZM15.1719 14.1172C15.9219 13.2734 16.3438 12.8516 16.4375 12.8516C16.7188 12.9453 17.4688 13.625 18.6875 14.8906C19.9531 16.1094 20.7266 16.9531 21.0078 17.4219C21.5234 18.2656 21.7812 18.7812 21.7812 18.9688C21.7812 19.1562 21.4766 19.4141 20.8672 19.7422C20.1641 20.1641 19.4609 20.3984 18.7578 20.4453C18.0547 20.4922 17.5391 20.3281 17.2109 19.9531C16.9297 19.5781 16.8359 19.1328 16.9297 18.6172C17.0234 18.2422 17 17.9844 16.8594 17.8438C16.7188 17.6562 16.2734 17.2812 15.5234 16.7188C14.5391 15.9688 14.0469 15.5469 14.0469 15.4531C14.0469 15.4062 14.4219 14.9609 15.1719 14.1172ZM17.9844 14.6797C17.4219 14.1641 17.0938 13.9062 17 13.9062C16.9531 13.9062 16.7891 14.0469 16.5078 14.3281C16.3672 14.5156 16.3203 14.6562 16.3672 14.75C16.4141 14.8438 16.6719 15.1016 17.1406 15.5234C18.125 16.2266 18.6641 16.2969 18.7578 15.7344C18.7578 15.5469 18.5 15.1953 17.9844 14.6797ZM18.2656 18.8281C17.9375 18.5469 17.7266 18.4297 17.6328 18.4766C17.5391 18.4766 17.4219 18.5938 17.2812 18.8281C17.0469 19.25 17.0938 19.5781 17.4219 19.8125C17.75 20 18.0781 19.9297 18.4062 19.6016C18.5938 19.4141 18.6641 19.2969 18.6172 19.25C18.6172 19.1562 18.5 19.0156 18.2656 18.8281ZM18.8984 19.8828C18.9922 19.7422 18.9688 19.6953 18.8281 19.7422C18.7812 19.7891 18.6875 19.8359 18.5469 19.8828C18.3594 20.0703 18.3359 20.1641 18.4766 20.1641C18.6641 20.1641 18.8047 20.0703 18.8984 19.8828ZM9.6875 15.1719C10.5781 14.2344 11.1172 13.6953 11.3047 13.5547C11.5391 13.4141 11.7734 13.4375 12.0078 13.625C12.3359 13.8125 12.5 13.9766 12.5 14.1172C12.5 14.5859 10.6953 16.7656 7.08594 20.6562C5.21094 22.6719 4.03906 24.125 3.57031 25.0156C3.05469 25.9062 2.65625 26.3984 2.375 26.4922C2.14062 26.5391 1.83594 26.4688 1.46094 26.2812C1.13281 26.0938 0.898438 25.8594 0.757812 25.5781C0.570312 25.25 0.570312 24.9453 0.757812 24.6641C0.992188 24.3828 1.46094 23.9609 2.16406 23.3984C2.96094 22.7891 4.13281 21.5469 5.67969 19.6719C7.08594 17.9375 8.42188 16.4375 9.6875 15.1719ZM20.8672 20.0234C21.5703 19.6953 21.9688 19.5547 22.0625 19.6016C22.3438 19.7891 22.6016 20.8438 22.8359 22.7656C23.1172 24.6875 23.1406 25.8125 22.9062 26.1406C22.7656 26.2812 22.3906 26.3047 21.7812 26.2109C21.2188 26.1641 20.8203 26.0234 20.5859 25.7891C20.3516 25.5547 20.2812 24.9922 20.375 24.1016C20.4219 23.2109 20.3516 22.4141 20.1641 21.7109C19.9766 21.0547 19.8828 20.7031 19.8828 20.6562C19.9297 20.6094 20.2578 20.3984 20.8672 20.0234Z" fill="#EBE3CB"/>
</svg>
