<svg width="304" height="27" viewBox="0 0 304 27" fill="none" xmlns="http://www.w3.org/2000/svg">
<path d="M14.0098 6.20703L14.3262 25.7539L7.83984 26L7.48828 6.41797L0.175781 6.76953L0 1.44336L22.1484 0.757812L22.3242 5.87305L14.0098 6.20703ZM31.0254 26L24.2227 25.8594L24.5742 0.617188L44.6309 1.19727L44.4902 7.20898L31.0605 6.83984V15.3828H38.9531L38.918 18.7578L31.0605 18.6875L31.0254 26ZM63.8613 25.2441H49.4297V21.2539C49.9336 21.207 50.502 21.0605 51.1348 20.8145C51.7793 20.5566 52.4414 20.2285 53.1211 19.8301C53.8008 19.4316 54.4746 18.9688 55.1426 18.4414C55.8223 17.9141 56.4434 17.3516 57.0059 16.7539C57.5801 16.1445 58.0723 15.5117 58.4824 14.8555C58.8926 14.1992 59.1738 13.543 59.3262 12.8867C59.4785 12.2305 59.4785 11.5859 59.3262 10.9531C59.1738 10.3203 58.8164 9.72266 58.2539 9.16016C57.7969 8.69141 57.2344 8.42188 56.5664 8.35156C55.9102 8.28125 55.2188 8.35156 54.4922 8.5625C53.7773 8.77344 53.0684 9.0957 52.3652 9.5293C51.6621 9.96289 51.0293 10.4492 50.4668 10.9883L46.4062 5.1875C46.5234 5.02344 46.7285 4.8125 47.0215 4.55469C47.3145 4.28516 47.6836 4.00391 48.1289 3.71094C48.5742 3.40625 49.0898 3.10156 49.6758 2.79688C50.2617 2.49219 50.9004 2.22266 51.5918 1.98828C52.2832 1.74219 53.0215 1.54297 53.8066 1.39062C54.5918 1.23828 55.4121 1.16211 56.2676 1.16211C56.8301 1.16211 57.4277 1.19141 58.0605 1.25C58.6934 1.30859 59.3262 1.43164 59.959 1.61914C60.5918 1.79492 61.207 2.05273 61.8047 2.39258C62.4023 2.73242 62.9473 3.17773 63.4395 3.72852C63.9316 4.2793 64.3594 4.95313 64.7227 5.75C65.0859 6.54687 65.3496 7.50195 65.5137 8.61523C65.6191 9.3418 65.5957 10.0801 65.4434 10.8301C65.3027 11.5684 65.0684 12.2949 64.7402 13.0098C64.4238 13.7246 64.0371 14.416 63.5801 15.084C63.1348 15.752 62.6719 16.3789 62.1914 16.9648C61.0547 18.3477 59.7305 19.666 58.2188 20.9199H63.791L63.8613 25.2441ZM88.0664 24.4883C87.6445 24.8281 87.1465 25.1094 86.5723 25.332C86.0098 25.5547 85.4121 25.7305 84.7793 25.8594C84.1465 25.9766 83.502 26.0586 82.8457 26.1055C82.2012 26.1523 81.5859 26.1758 81 26.1758C79.875 26.1758 78.7559 26.041 77.6426 25.7715C76.541 25.502 75.4863 25.1152 74.4785 24.6113C73.4824 24.1074 72.5566 23.5039 71.7012 22.8008C70.8457 22.0859 70.1016 21.2949 69.4688 20.4277C68.8477 19.5488 68.3555 18.5996 67.9922 17.5801C67.6406 16.5605 67.4648 15.4883 67.4648 14.3633C67.4062 13.1211 67.5 11.9199 67.7461 10.7598C67.9922 9.58789 68.3789 8.49219 68.9062 7.47266C69.4336 6.44141 70.0957 5.50391 70.8926 4.66016C71.7012 3.80469 72.6387 3.07227 73.7051 2.46289C74.7832 1.8418 75.9844 1.36133 77.3086 1.02148C78.6328 0.681641 80.0801 0.511719 81.6504 0.511719C82.6699 0.511719 83.6309 0.587891 84.5332 0.740234C85.4473 0.880859 86.25 1.05078 86.9414 1.25C87.6445 1.4375 88.2129 1.625 88.6465 1.8125C89.0801 1.98828 89.3379 2.11719 89.4199 2.19922V8.61523C89.1738 8.45117 88.8047 8.27539 88.3125 8.08789C87.832 7.88867 87.2754 7.71875 86.6426 7.57812C86.0098 7.42578 85.3184 7.32031 84.5684 7.26172C83.8301 7.19141 83.0859 7.19727 82.3359 7.2793C81.8789 7.2793 81.3457 7.33789 80.7363 7.45508C80.1387 7.57227 79.5234 7.76563 78.8906 8.03516C78.2578 8.29297 77.6426 8.63281 77.0449 9.05469C76.459 9.46484 75.9492 9.97461 75.5156 10.584C75.0938 11.1816 74.7891 11.8789 74.6016 12.6758C74.4141 13.4727 74.4023 14.375 74.5664 15.3828C74.7305 16.2266 75.0938 16.9707 75.6562 17.6152C76.2188 18.248 76.8926 18.7812 77.6777 19.2148C78.4746 19.6484 79.3477 19.9766 80.2969 20.1992C81.2461 20.4102 82.1895 20.5273 83.127 20.5508C84.0762 20.5625 84.9785 20.4746 85.834 20.2871C86.7012 20.0996 87.4453 19.8066 88.0664 19.4082V24.4883ZM100.336 15.2422L93.2344 14.2578L93.3047 15.1719C93.3984 15.9688 93.6328 16.8594 94.0078 17.8438C94.5234 19.2969 95.2266 20.5156 96.1172 21.5C96.5859 22.0625 97.0781 22.5547 97.5938 22.9766C97.9688 23.2578 98.2031 23.4219 98.2969 23.4688C98.2969 23.5156 98.3672 23.5859 98.5078 23.6797C98.6953 23.7734 98.9062 23.8906 99.1406 24.0312C99.9375 24.5469 100.477 24.8047 100.758 24.8047L101.461 25.0859C101.883 25.2266 102.117 25.2734 102.164 25.2266C102.211 25.1797 102.281 24.9453 102.375 24.5234C102.469 23.8672 102.516 23.4922 102.516 23.3984L102.727 22.0625L103.289 18.4062C103.008 18.3125 102.492 17.8906 101.742 17.1406C100.992 16.3906 100.523 15.7578 100.336 15.2422ZM106.242 21.1484L106.312 20.7969C106.406 20.1406 106.477 19.4844 106.523 18.8281C106.523 18.6875 106.617 18.5938 106.805 18.5469C107.227 18.4531 107.719 18.1953 108.281 17.7734C108.844 17.3047 109.242 16.8828 109.477 16.5078C109.57 16.2734 109.969 16.1797 110.672 16.2266C110.812 16.2266 111.258 16.2734 112.008 16.3672L115.172 16.7891H115.312C115.406 16.7891 115.523 16.7891 115.664 16.7891C115.805 16.7891 115.922 16.7891 116.016 16.7891C116.156 16.7891 116.297 16.8125 116.438 16.8594C116.578 16.9062 116.672 16.9531 116.719 17C116.812 17 116.836 17.0234 116.789 17.0703C116.789 17.0703 116.766 17.1406 116.719 17.2812C116.719 17.375 116.695 17.4922 116.648 17.6328C116.648 17.7266 116.648 17.7969 116.648 17.8438C116.555 18.125 116.32 18.5938 115.945 19.25C115.617 19.9062 115.43 20.2344 115.383 20.2344C115.336 20.2344 115.312 20.3281 115.312 20.5156C115.312 20.5625 115.289 20.6328 115.242 20.7266C115.195 20.7734 115.172 20.7734 115.172 20.7266C115.078 20.6328 115.031 20.6562 115.031 20.7969C115.031 20.9375 114.703 21.3359 114.047 21.9922C113.438 22.6484 112.828 23.1641 112.219 23.5391C112.125 23.6328 112.031 23.7266 111.938 23.8203C111.844 23.8672 111.797 23.9141 111.797 23.9609C111.75 23.9141 111.422 24.0547 110.812 24.3828C109.406 25.0859 108.07 25.4844 106.805 25.5781C106.008 25.6719 105.656 25.6719 105.75 25.5781L105.891 24.5234L106.242 21.1484ZM97.2422 11.0234L96.1875 10.8125C96.0469 10.8125 95.8359 10.7891 95.5547 10.7422C95.3203 10.6953 95.0859 10.6719 94.8516 10.6719C94.6641 10.625 94.5234 10.6016 94.4297 10.6016C93.9609 10.5078 93.7031 10.4609 93.6562 10.4609C93.6094 10.4141 93.6562 10.2734 93.7969 10.0391C93.8906 9.85156 93.9609 9.71094 94.0078 9.61719C94.0078 9.52344 94.0781 9.26562 94.2188 8.84375C94.4062 8.46875 94.5 8.28125 94.5 8.28125C94.5 8.1875 94.6875 7.83594 95.0625 7.22656C95.4844 6.57031 95.7891 6.17188 95.9766 6.03125C96.9141 4.90625 97.9219 4.01562 99 3.35938C100.219 2.65625 100.969 2.30469 101.25 2.30469C101.391 2.30469 101.602 2.23438 101.883 2.09375C102.211 1.95312 102.656 1.85938 103.219 1.8125L103.992 1.67188C104.039 1.67188 104.227 1.67188 104.555 1.67188C104.883 1.625 105.047 1.71875 105.047 1.95312C105.047 2.1875 104.953 2.86719 104.766 3.99219L104.625 4.625C104.672 4.67188 104.625 5.25781 104.484 6.38281L104.414 7.29688C104.32 7.85938 104.273 8.1875 104.273 8.28125C104.273 8.28125 104.25 8.42188 104.203 8.70312C104.203 8.9375 104.133 9.07812 103.992 9.125C103.523 9.26562 103.008 9.52344 102.445 9.89844C101.93 10.2266 101.672 10.4609 101.672 10.6016C101.672 10.7422 101.625 10.8125 101.531 10.8125C101.438 10.8125 101.344 10.9297 101.25 11.1641C101.156 11.3516 100.992 11.4219 100.758 11.375C100.617 11.375 100.289 11.3281 99.7734 11.2344L99.0703 11.1641C98.9766 11.1641 98.8594 11.1641 98.7188 11.1641C98.625 11.1172 98.4375 11.0938 98.1562 11.0938C97.875 11.0938 97.6875 11.0938 97.5938 11.0938L97.2422 11.0234ZM108.211 4.76562C108.258 4.71875 108.328 4.17969 108.422 3.14844C108.516 2.53906 108.562 2.21094 108.562 2.16406C108.656 2.11719 109.008 2.23438 109.617 2.51562C110.273 2.75 110.883 3.00781 111.445 3.28906C112.43 3.89844 113.391 4.74219 114.328 5.82031C115.266 6.89844 115.945 7.95312 116.367 8.98438C116.461 9.3125 116.625 9.73438 116.859 10.25C117 10.5312 117.094 11.1172 117.141 12.0078C117.188 12.8516 117.164 13.2969 117.07 13.3438C116.977 13.3906 116.672 13.3906 116.156 13.3438C116.062 13.2969 115.852 13.25 115.523 13.2031C115.195 13.1562 114.984 13.1328 114.891 13.1328L113.836 12.9922C112.57 12.8516 111.492 12.7109 110.602 12.5703H110.461C110.414 12.5703 110.367 12.5703 110.32 12.5703C110.227 12.5703 110.039 12.2656 109.758 11.6562C109.336 10.8594 108.75 10.2031 108 9.6875C107.859 9.59375 107.766 9.47656 107.719 9.33594C107.719 9.19531 107.766 8.77344 107.859 8.07031L108.211 4.76562ZM107.859 8.07031L108.211 4.76562L107.93 6.66406L107.859 8.07031ZM132.996 19.0918L139.992 1.51367L144.738 1.37305L145.143 25.3145L139.482 25.3848L139.412 12.3945L133.717 26.1406L131.168 25.8594L125.666 13.8359L126.053 25.9648H119.654L119.32 0.828125H124.717L132.996 19.0918ZM166.852 7.75391C166.852 8.26953 166.84 8.76758 166.816 9.24805C166.805 9.72852 166.746 10.1914 166.641 10.6367C166.535 11.082 166.365 11.5215 166.131 11.9551C165.896 12.3887 165.562 12.8223 165.129 13.2559C164.73 13.7246 164.244 14.1172 163.67 14.4336C163.096 14.75 162.48 15.0137 161.824 15.2246C161.18 15.4238 160.506 15.582 159.803 15.6992C159.1 15.8047 158.42 15.8867 157.764 15.9453C157.119 15.9922 156.51 16.0215 155.936 16.0332C155.361 16.0332 154.875 16.0332 154.477 16.0332V25.6484L147.92 26L147.234 0.863281L154.107 0.511719C154.541 0.511719 155.016 0.517578 155.531 0.529297C156.047 0.529297 156.604 0.552734 157.201 0.599609C157.811 0.646484 158.461 0.722656 159.152 0.828125C159.844 0.921875 160.576 1.05664 161.35 1.23242C162.123 1.4082 162.844 1.70117 163.512 2.11133C164.18 2.52148 164.76 3.01953 165.252 3.60547C165.756 4.17969 166.148 4.82422 166.43 5.53906C166.711 6.24219 166.852 6.98047 166.852 7.75391ZM154.248 12.4648C154.389 12.4648 154.658 12.4766 155.057 12.5C155.467 12.5234 155.93 12.5293 156.445 12.5176C156.961 12.5059 157.5 12.4531 158.062 12.3594C158.625 12.2656 159.129 12.0957 159.574 11.8496C160.031 11.6035 160.395 11.2637 160.664 10.8301C160.934 10.3848 161.039 9.81055 160.98 9.10742C160.922 8.42773 160.723 7.87109 160.383 7.4375C160.055 6.99219 159.598 6.65234 159.012 6.41797C158.426 6.18359 157.717 6.03711 156.885 5.97852C156.064 5.91992 155.139 5.93164 154.107 6.01367L154.248 12.4648ZM188.455 6.83984H174.533L174.639 15.1367H182.338V18.5117H174.779L174.85 21.2539L186.258 20.8848L186.398 25.6836L168.363 26L168.047 0.828125H188.455V6.83984ZM196.787 10.7422L197.139 26H190.371V0.792969H195.486L206.719 16.8242L205.963 1.05664L211.764 0.828125L212.15 25.3145L207.404 25.6836L196.787 10.7422ZM238.148 10.6367C238.441 12.1836 238.482 13.6309 238.271 14.9785C238.061 16.3145 237.656 17.5332 237.059 18.6348C236.461 19.7363 235.688 20.7207 234.738 21.5879C233.789 22.4434 232.717 23.1758 231.521 23.7852C230.326 24.3828 229.031 24.8516 227.637 25.1914C226.242 25.5312 224.801 25.7305 223.312 25.7891C221.578 25.8828 220.143 25.9355 219.006 25.9473C217.869 25.959 216.955 25.9531 216.264 25.9297C215.455 25.9062 214.828 25.8594 214.383 25.7891L214.031 1.16211C214.746 1.08008 215.496 1.00977 216.281 0.951172C217.078 0.880859 217.852 0.828125 218.602 0.792969C219.352 0.746094 220.049 0.710937 220.693 0.6875C221.338 0.664063 221.877 0.652344 222.311 0.652344C223.061 0.652344 223.928 0.6875 224.912 0.757812C225.908 0.816406 226.945 0.957031 228.023 1.17969C229.102 1.40234 230.18 1.73047 231.258 2.16406C232.336 2.59766 233.338 3.18359 234.264 3.92188C235.189 4.66016 235.992 5.58008 236.672 6.68164C237.363 7.77148 237.855 9.08984 238.148 10.6367ZM220.219 21.0254C222.012 21.1426 223.617 21.0781 225.035 20.832C226.465 20.5742 227.666 20.1406 228.639 19.5312C229.611 18.9219 230.338 18.1426 230.818 17.1934C231.299 16.2324 231.498 15.1133 231.416 13.8359C231.369 13.0156 231.205 12.2949 230.924 11.6738C230.643 11.0527 230.279 10.5195 229.834 10.0742C229.4 9.61719 228.896 9.24219 228.322 8.94922C227.76 8.65625 227.168 8.42773 226.547 8.26367C225.938 8.08789 225.311 7.96484 224.666 7.89453C224.021 7.82422 223.406 7.79492 222.82 7.80664C222.234 7.80664 221.689 7.83594 221.186 7.89453C220.682 7.95312 220.254 8.02344 219.902 8.10547L220.219 21.0254ZM247.131 26.1406L240.223 25.7891L241.26 0.582031L248.168 0.951172L247.131 26.1406ZM250.98 0.792969H258.75C258.75 3.45312 258.732 5.82617 258.697 7.91211C258.674 9.99805 258.691 11.8379 258.75 13.4316C258.809 15.0137 258.938 16.3555 259.137 17.457C259.336 18.5586 259.658 19.4551 260.104 20.1465C260.561 20.8262 261.164 21.3125 261.914 21.6055C262.676 21.8867 263.648 21.998 264.832 21.9395C266.016 21.8809 266.977 21.6172 267.715 21.1484C268.453 20.6797 269.021 20.0293 269.42 19.1973C269.83 18.3535 270.105 17.3398 270.246 16.1562C270.387 14.9609 270.463 13.6133 270.475 12.1133C270.486 10.6133 270.463 8.97266 270.404 7.19141C270.346 5.39844 270.316 3.48242 270.316 1.44336C270.316 1.44336 270.457 1.44336 270.738 1.44336C271.031 1.44336 271.389 1.44922 271.811 1.46094C272.232 1.46094 272.689 1.46094 273.182 1.46094C273.674 1.46094 274.131 1.46094 274.553 1.46094C274.975 1.46094 275.326 1.46094 275.607 1.46094C275.889 1.44922 276.029 1.44336 276.029 1.44336C276.029 3.30664 276.023 4.94727 276.012 6.36523C276.012 7.77148 276 9.00781 275.977 10.0742C275.965 11.1406 275.947 12.0723 275.924 12.8691C275.9 13.6543 275.865 14.3691 275.818 15.0137C275.771 15.6465 275.713 16.2324 275.643 16.7715C275.572 17.2988 275.49 17.8438 275.396 18.4062C275.209 19.4961 274.805 20.5156 274.184 21.4648C273.574 22.4023 272.789 23.2227 271.828 23.9258C270.879 24.6289 269.783 25.1797 268.541 25.5781C267.299 25.9766 265.957 26.1758 264.516 26.1758C263.109 26.1758 261.844 26.0645 260.719 25.8418C259.605 25.6074 258.609 25.3027 257.73 24.9277C256.863 24.5527 256.107 24.1191 255.463 23.627C254.818 23.1348 254.268 22.6309 253.811 22.1152C253.354 21.5879 252.973 21.0664 252.668 20.5508C252.375 20.0234 252.146 19.5371 251.982 19.0918C251.865 18.752 251.76 18.3652 251.666 17.9316C251.572 17.4863 251.49 16.9473 251.42 16.3145C251.35 15.6699 251.285 14.9023 251.227 14.0117C251.168 13.1211 251.121 12.0547 251.086 10.8125C251.051 9.57031 251.021 8.12891 250.998 6.48828C250.986 4.83594 250.98 2.9375 250.98 0.792969ZM291.621 19.0918L298.617 1.51367L303.363 1.37305L303.768 25.3145L298.107 25.3848L298.037 12.3945L292.342 26.1406L289.793 25.8594L284.291 13.8359L284.678 25.9648H278.279L277.945 0.828125H283.342L291.621 19.0918Z" fill="#EBE3CB"/>
</svg>
